<svg width="1731" height="541" viewBox="0 0 1731 541" fill="none" xmlns="http://www.w3.org/2000/svg">
<path d="M417 69C444.614 69 467 91.3858 467 119V129.441C466.691 129.463 466.391 129.493 466.104 129.535C460.959 130.254 422.809 151.901 423.766 153.575C424.124 154.173 423.885 154.293 423.048 153.814C422.33 153.336 419.938 154.054 417.666 155.369C415.513 156.804 413.361 157.881 413.002 157.881C412.643 157.881 412.165 144.486 411.926 128.101L411.566 98.3203L407.859 93.6553C401.042 85.1638 390.995 82.653 382.025 87.3174C379.633 88.6331 376.404 91.3835 374.85 93.5361C372.219 97.3632 372.099 98.2009 371.74 127.622C371.501 144.246 371.022 157.881 370.544 157.881C370.063 157.879 361.333 152.976 351.169 146.997C323.542 130.852 318.758 128.699 312.3 129.655C301.416 131.33 294.48 139.342 294.479 150.226C294.479 160.033 297.948 163.861 316.725 174.744C363.606 201.772 371.261 206.198 375.687 209.308C380.231 212.417 391.115 223.421 406.663 240.404C410.49 244.71 418.742 253.56 424.842 260.138C430.941 266.715 437.04 273.412 438.356 274.968C439.792 276.523 446.37 283.818 453.188 290.994C459.885 298.29 466.104 305.107 466.941 306.423C466.96 306.45 466.981 306.475 467 306.501V348.472C465.161 346.54 463.413 344.707 461.799 343.02C451.394 332.017 442.305 323.287 441.706 323.765C440.988 324.123 440.869 323.884 441.228 323.286C442.304 321.612 399.128 276.045 397.573 277.121C396.856 277.48 396.617 277.36 396.976 276.762C397.812 275.206 388.842 265.281 387.646 266.477C387.049 266.955 387.049 266.715 387.408 265.998C388.244 264.562 370.305 246.384 368.152 246.384C367.554 246.384 366.597 245.068 366.238 243.394C365.76 241.719 365.042 240.643 364.444 241.002C363.846 241.241 363.129 240.762 362.771 239.806C361.814 237.653 351.767 232.51 345.069 230.955C342.198 230.237 321.867 228.563 299.861 227.128C269.483 225.334 258.958 224.257 256.207 222.822C254.173 221.745 247.955 216.723 242.334 211.461C224.035 194.478 201.789 186.226 185.404 190.053C180.86 191.249 177.75 193.282 173.923 197.946C169.737 202.969 167.944 206.677 168.9 208.352C169.378 209.188 169.259 209.308 168.422 208.83C166.747 207.754 161.485 224.258 160.289 234.065L159.571 241.36L154.309 242.198C144.741 243.634 130.508 251.766 121.18 261.214C106.349 276.044 102.044 287.885 105.393 304.39C108.143 317.306 116.396 333.571 119.386 331.777C120.103 331.299 120.343 331.539 119.984 332.137C119.028 333.572 125.486 339.671 133.618 345.412C138.641 348.761 159.931 360.003 161.485 360.003C161.864 360.011 186.254 370.054 215.663 382.248C245.204 394.447 276.778 407.603 285.987 411.431C295.196 415.258 306.319 419.205 310.625 420.281C324.977 423.75 349.974 422.433 363.728 417.171C368.632 415.377 384.538 407.364 395.421 401.265C400.324 398.514 408.697 393.849 413.959 391.099C439.075 377.584 438.357 377.823 444.457 380.933C449.241 383.444 451.633 387.272 451.633 392.653C451.633 399.59 448.403 402.939 434.53 410.234C427.594 413.822 422.212 417.291 422.57 418.009C423.048 418.606 422.929 418.845 422.331 418.367C421.016 417.052 402.479 427.097 403.434 428.533C403.792 429.251 403.554 429.37 402.717 428.892C401.999 428.413 392.79 432.719 381.906 438.699C371.262 444.56 358.824 451.377 354.159 453.889C324.02 470.034 324.02 470.034 320.312 478.167C313.376 493.236 321.269 509.86 337.415 514.166C340.405 514.884 359.302 515.481 386.93 515.481L431.54 515.602L434.769 519.309C437.922 523.092 438.84 527.604 437.593 531.575C431.313 534.417 424.341 536 417 536H319.32C317.555 533.445 308.527 518.239 299.383 502.206C290.054 486.06 281.562 471.828 280.605 470.632C278.094 467.642 269.961 464.055 265.536 464.055C260.513 464.055 252.74 467.283 253.815 469.077C254.294 469.795 254.174 470.034 253.457 469.676C251.663 468.599 246.639 474.34 247.716 476.134C248.314 476.971 248.195 477.329 247.357 476.731C245.683 475.775 244.128 485.462 245.324 489.409C246.879 494.552 259.556 515.362 260.633 514.645C261.35 514.286 261.47 514.526 260.991 515.243C259.916 517.038 265.536 526.604 266.852 525.408C267.33 524.811 267.45 525.169 266.972 525.887C266.134 527.322 271.277 536.292 272.354 535.335C272.491 535.198 272.668 535.458 272.794 536H154.626C176.997 497.309 182.534 487.291 182.534 486.061C182.534 484.984 183.013 484.506 183.73 484.984C185.285 485.94 187.079 478.645 186.481 473.024C186.242 470.393 184.926 466.566 183.73 464.652C179.544 457.835 155.744 416.932 150.003 406.646C141.632 391.699 137.088 385.001 135.771 385.836C135.174 386.195 135.053 385.597 135.412 384.641C135.891 383.205 134.695 382.009 130.987 380.335C124.41 377.345 118.788 377.345 112.33 380.215C106.111 383.085 101.207 390.86 101.207 398.155C101.207 403.657 107.666 418.008 109.579 416.812C110.177 416.454 110.535 416.813 110.177 417.649C109.818 418.487 114.124 426.979 119.745 436.547L129.911 453.889L100.25 454.486C71.0683 455.084 70.4699 455.084 66.0449 458.074C53.9654 466.207 53.965 485.343 66.1641 492.878C70.5892 495.629 71.9051 495.748 100.25 496.346L129.791 496.944L123.931 506.99C120.701 512.492 118.429 517.635 118.788 518.353C119.147 519.07 119.147 519.309 118.549 518.831C118.07 518.233 114.124 523.974 109.818 531.389C108.837 533.092 107.973 534.618 107.207 536H50C22.3858 536 0 513.614 0 486V119C2.96398e-06 91.3858 22.3858 69 50 69H417ZM467 486C467 487.604 466.923 489.19 466.775 490.755C461.019 484.93 456.57 480.799 455.699 480.798C454.862 480.798 454.384 480.081 454.742 479.124C455.101 478.167 454.862 477.091 454.145 476.612C453.427 476.254 452.828 473.861 452.828 471.35C452.828 466.207 455.34 463.456 463.354 459.39C465.018 458.558 466.268 457.723 467 457.001V486ZM231.57 270.423C238.986 267.792 254.054 267.194 262.546 269.228C277.974 272.696 295.077 286.689 299.144 299.127C305.482 318.024 297.948 335.844 280.008 343.977C253.935 355.936 220.209 343.977 208.607 318.622C204.421 309.533 204.78 296.974 209.444 288.243C213.75 280.469 222.122 273.772 231.57 270.423ZM467 239.146C429.589 222.718 416.142 216.211 414.677 213.733C412.285 209.667 414.557 204.643 420.298 201.414C422.69 200.099 424.603 198.424 424.483 197.587C424.245 196.87 424.842 196.511 425.799 196.87C426.636 197.229 432.736 194.358 439.194 190.65C445.772 186.823 454.981 181.561 459.646 178.811C463.045 176.856 465.838 174.959 467 173.854V239.146Z" fill="#3B9E7C"/>
<path d="M710.49 273.224C700.459 273.224 691.682 271.075 684.159 266.776C676.814 262.477 671.082 256.476 666.962 248.773L666.156 270H627.734V79.2295H668.037V146.402C671.799 139.775 677.352 134.222 684.696 129.743C692.04 125.086 700.638 122.757 710.49 122.757C722.671 122.757 733.24 125.892 742.196 132.162C751.152 138.252 758.049 146.94 762.885 158.225C767.901 169.51 770.408 182.765 770.408 197.991C770.408 213.217 767.901 226.472 762.885 237.757C758.049 249.042 751.152 257.819 742.196 264.089C733.24 270.179 722.671 273.224 710.49 273.224ZM699.205 242.325C708.162 242.325 715.327 238.474 720.701 230.771C726.254 222.89 729.03 211.963 729.03 197.991C729.03 184.019 726.343 173.182 720.969 165.479C715.595 157.598 708.43 153.657 699.474 153.657C692.846 153.657 687.114 155.448 682.278 159.031C677.621 162.434 674.038 167.45 671.53 174.077C669.202 180.705 668.037 188.676 668.037 197.991C668.037 207.126 669.202 215.008 671.53 221.636C674.038 228.263 677.621 233.368 682.278 236.951C687.114 240.534 692.757 242.325 699.205 242.325ZM784.655 270V125.982H824.959V270H784.655ZM783.849 108.248V76.0052H825.496V108.248H783.849ZM912.145 273.224C897.456 273.224 884.649 270.179 873.722 264.089C862.795 257.819 854.287 249.042 848.197 237.757C842.106 226.472 839.061 213.217 839.061 197.991C839.061 182.765 842.106 169.599 848.197 158.493C854.287 147.208 862.795 138.431 873.722 132.162C884.649 125.892 897.456 122.757 912.145 122.757C926.833 122.757 939.641 125.892 950.568 132.162C961.494 138.431 970.003 147.208 976.093 158.493C982.184 169.599 985.229 182.765 985.229 197.991C985.229 213.217 982.184 226.472 976.093 237.757C970.003 249.042 961.494 257.819 950.568 264.089C939.641 270.179 926.833 273.224 912.145 273.224ZM912.145 242.325C922.176 242.325 929.968 238.474 935.521 230.771C941.074 222.89 943.85 211.963 943.85 197.991C943.85 184.019 941.074 173.182 935.521 165.479C929.968 157.598 922.176 153.657 912.145 153.657C902.114 153.657 894.322 157.598 888.769 165.479C883.216 173.182 880.439 184.019 880.439 197.991C880.439 211.963 883.216 222.89 888.769 230.771C894.322 238.474 902.114 242.325 912.145 242.325ZM1038.51 270C1026.68 270 1017.46 267.044 1010.83 261.133C1004.2 255.222 1000.89 245.639 1000.89 232.383V79.2295H1041.19V228.084C1041.19 232.383 1042.18 235.428 1044.15 237.22C1046.12 239.011 1048.98 239.907 1052.75 239.907H1062.42V270H1038.51ZM1137.04 273.224C1122.35 273.224 1109.54 270.179 1098.61 264.089C1087.69 257.819 1079.18 249.042 1073.09 237.757C1067 226.472 1063.95 213.217 1063.95 197.991C1063.95 182.765 1067 169.599 1073.09 158.493C1079.18 147.208 1087.69 138.431 1098.61 132.162C1109.54 125.892 1122.35 122.757 1137.04 122.757C1151.73 122.757 1164.53 125.892 1175.46 132.162C1186.39 138.431 1194.9 147.208 1200.99 158.493C1207.08 169.599 1210.12 182.765 1210.12 197.991C1210.12 213.217 1207.08 226.472 1200.99 237.757C1194.9 249.042 1186.39 257.819 1175.46 264.089C1164.53 270.179 1151.73 273.224 1137.04 273.224ZM1137.04 242.325C1147.07 242.325 1154.86 238.474 1160.41 230.771C1165.97 222.89 1168.74 211.963 1168.74 197.991C1168.74 184.019 1165.97 173.182 1160.41 165.479C1154.86 157.598 1147.07 153.657 1137.04 153.657C1127.01 153.657 1119.21 157.598 1113.66 165.479C1108.11 173.182 1105.33 184.019 1105.33 197.991C1105.33 211.963 1108.11 222.89 1113.66 230.771C1119.21 238.474 1127.01 242.325 1137.04 242.325ZM1288.95 313.528C1275.16 313.528 1263.61 311.826 1254.29 308.423C1245.16 305.019 1237.81 300.273 1232.26 294.182C1226.89 288.092 1223.13 281.106 1220.98 273.224L1262.35 270.269C1263.79 274.926 1266.47 278.598 1270.41 281.285C1274.53 283.972 1280.71 285.315 1288.95 285.315C1298.63 285.315 1305.97 282.987 1310.99 278.329C1316.18 273.851 1318.78 266.597 1318.78 256.565V241.25C1315.38 247.878 1309.91 253.252 1302.39 257.372C1294.87 261.312 1286.45 263.283 1277.13 263.283C1265.31 263.283 1254.83 260.417 1245.7 254.685C1236.56 248.773 1229.39 240.623 1224.2 230.234C1219.18 219.665 1216.68 207.305 1216.68 193.154C1216.68 179.362 1219.18 167.181 1224.2 156.612C1229.39 146.044 1236.47 137.804 1245.43 131.893C1254.56 125.803 1264.95 122.757 1276.59 122.757C1287.16 122.757 1296.03 125.086 1303.2 129.743C1310.54 134.401 1316.09 140.581 1319.85 148.283V125.982H1359.35V255.759C1359.35 268.657 1356.4 279.315 1350.48 287.734C1344.57 296.332 1336.33 302.78 1325.77 307.079C1315.2 311.378 1302.93 313.528 1288.95 313.528ZM1288.69 233.458C1298 233.458 1305.34 229.876 1310.72 222.71C1316.27 215.545 1319.05 205.604 1319.05 192.886C1319.05 184.467 1317.79 177.212 1315.29 171.122C1312.96 165.031 1309.46 160.374 1304.81 157.15C1300.33 153.926 1294.96 152.313 1288.69 152.313C1279.01 152.313 1271.49 155.986 1266.12 163.33C1260.74 170.674 1258.05 180.526 1258.05 192.886C1258.05 205.425 1260.83 215.366 1266.38 222.71C1271.94 229.876 1279.37 233.458 1288.69 233.458ZM1376.22 270V228.89H1420.02V270H1376.22Z" fill="#173E5E"/>
<path d="M1490.77 270V125.982H1527.31V270H1490.77ZM1437.3 270V240.981H1572.72V270H1437.3ZM1439.99 155V125.982H1520.6V155H1439.99ZM1489.7 108.248V76.5426H1526.78V108.248H1489.7ZM1629.58 273.224C1620.8 273.224 1612.74 271.612 1605.4 268.388C1598.05 265.164 1592.23 260.506 1587.93 254.416C1583.81 248.326 1581.75 241.071 1581.75 232.652C1581.75 220.471 1585.61 210.978 1593.31 204.171C1601.19 197.364 1611.94 192.527 1625.55 189.661L1668.81 180.257C1668.81 171.122 1666.93 164.136 1663.17 159.299C1659.58 154.463 1653.67 152.045 1645.43 152.045C1638.27 152.045 1632.72 153.836 1628.77 157.419C1624.83 161.001 1622.24 165.748 1620.98 171.659L1583.37 169.51C1586.05 155.359 1592.77 144.074 1603.52 135.655C1614.44 127.056 1628.24 122.757 1644.9 122.757C1665.68 122.757 1680.9 128.042 1690.57 138.61C1700.43 149 1705.35 163.598 1705.35 182.407V233.189C1705.35 236.772 1705.98 239.28 1707.23 240.713C1708.49 241.967 1710.37 242.594 1712.88 242.594H1718.79V270C1717.71 270.179 1715.92 270.358 1713.41 270.537C1710.9 270.896 1708.31 271.075 1705.62 271.075C1698.46 271.075 1692.37 269.821 1687.35 267.313C1682.33 264.805 1678.48 261.133 1675.8 256.297C1673.29 251.46 1671.85 245.639 1671.5 238.832H1675.53C1674.63 245.28 1672.21 251.192 1668.27 256.565C1664.33 261.76 1659.05 265.88 1652.42 268.925C1645.79 271.791 1638.18 273.224 1629.58 273.224ZM1637.1 245.818C1643.91 245.818 1649.64 244.653 1654.3 242.325C1658.96 239.817 1662.54 236.235 1665.05 231.577C1667.56 226.741 1668.81 221.098 1668.81 214.65V206.052L1636.84 213.038C1630.39 214.471 1625.82 216.531 1623.13 219.217C1620.45 221.904 1619.1 225.756 1619.1 230.771C1619.1 235.428 1620.62 239.101 1623.67 241.787C1626.71 244.474 1631.19 245.818 1637.1 245.818Z" fill="#3AA6FF"/>
<path d="M634.776 424.18C630.745 424.18 627.23 423.418 624.231 421.894C621.233 420.37 618.849 418.281 617.079 415.626C615.358 412.922 614.351 409.801 614.056 406.261L620.692 405.819C621.036 408.424 621.798 410.637 622.978 412.455C624.158 414.274 625.731 415.651 627.697 416.585C629.713 417.519 632.121 417.986 634.924 417.986C637.381 417.986 639.471 417.666 641.191 417.027C642.912 416.388 644.215 415.454 645.099 414.225C646.033 412.996 646.5 411.497 646.5 409.727C646.5 408.105 646.107 406.679 645.321 405.45C644.583 404.172 643.133 403.017 640.97 401.985C638.856 400.903 635.71 399.846 631.532 398.814C627.501 397.781 624.281 396.651 621.872 395.422C619.512 394.193 617.792 392.694 616.71 390.924C615.678 389.154 615.162 386.967 615.162 384.361C615.162 381.412 615.85 378.831 617.226 376.619C618.652 374.357 620.667 372.612 623.273 371.383C625.878 370.105 628.975 369.466 632.564 369.466C636.398 369.466 639.692 370.203 642.445 371.678C645.198 373.104 647.385 375.07 649.008 377.577C650.63 380.084 651.638 382.936 652.031 386.131L645.394 386.573C645.099 384.459 644.411 382.591 643.33 380.969C642.297 379.298 640.872 377.995 639.053 377.061C637.234 376.127 635.022 375.66 632.416 375.66C629.172 375.66 626.591 376.447 624.674 378.02C622.757 379.544 621.798 381.559 621.798 384.066C621.798 385.688 622.167 387.04 622.904 388.122C623.691 389.154 625.067 390.088 627.034 390.924C629 391.71 631.827 392.571 635.513 393.505C639.889 394.586 643.354 395.889 645.911 397.413C648.516 398.888 650.359 400.608 651.441 402.574C652.572 404.541 653.137 406.778 653.137 409.285C653.137 412.333 652.35 414.987 650.777 417.248C649.204 419.461 647.041 421.181 644.288 422.41C641.535 423.59 638.365 424.18 634.776 424.18ZM672.947 423.885C669.063 423.885 665.941 422.582 663.582 419.977C661.271 417.322 660.116 413.684 660.116 409.063V383.919H666.31V407.367C666.31 411.153 666.974 413.955 668.301 415.774C669.678 417.543 671.767 418.428 674.569 418.428C677.666 418.428 680.099 417.445 681.869 415.479C683.639 413.463 684.524 410.71 684.524 407.22V383.919H690.718V423H684.818V413.34L685.777 413.856C684.991 417.052 683.491 419.534 681.279 421.304C679.067 423.025 676.289 423.885 672.947 423.885ZM710.125 423.885C706.094 423.885 702.874 422.951 700.465 421.083C698.106 419.215 696.926 416.609 696.926 413.267C696.926 409.924 697.909 407.294 699.875 405.377C701.842 403.459 704.963 402.107 709.24 401.321L723.103 398.74C723.103 395.446 722.317 392.989 720.743 391.366C719.22 389.744 716.909 388.933 713.812 388.933C711.108 388.933 708.97 389.547 707.397 390.776C705.824 391.956 704.742 393.677 704.152 395.938L697.59 395.422C698.327 391.735 700.097 388.761 702.899 386.5C705.75 384.189 709.388 383.034 713.812 383.034C718.826 383.034 722.661 384.459 725.315 387.311C727.97 390.113 729.297 393.996 729.297 398.961V415.11C729.297 415.995 729.445 416.634 729.74 417.027C730.084 417.371 730.624 417.543 731.362 417.543H732.91V423C732.714 423.049 732.394 423.074 731.952 423.074C731.509 423.123 731.042 423.147 730.551 423.147C728.781 423.147 727.331 422.877 726.2 422.336C725.119 421.746 724.332 420.862 723.84 419.682C723.349 418.453 723.103 416.855 723.103 414.889L723.84 415.036C723.496 416.708 722.661 418.232 721.333 419.608C720.006 420.935 718.359 421.992 716.393 422.779C714.427 423.516 712.337 423.885 710.125 423.885ZM710.715 418.428C713.32 418.428 715.533 417.937 717.351 416.953C719.22 415.921 720.645 414.545 721.628 412.824C722.611 411.054 723.103 409.088 723.103 406.925V404.123L710.42 406.483C707.765 406.974 705.922 407.736 704.89 408.769C703.907 409.752 703.415 411.054 703.415 412.677C703.415 414.496 704.054 415.921 705.332 416.953C706.659 417.937 708.454 418.428 710.715 418.428ZM752.73 434.061V383.919H758.481L758.629 392.325L757.744 391.882C758.727 388.982 760.349 386.794 762.611 385.32C764.921 383.796 767.576 383.034 770.574 383.034C774.458 383.034 777.629 383.992 780.087 385.91C782.594 387.827 784.437 390.334 785.617 393.431C786.846 396.528 787.46 399.871 787.46 403.459C787.46 407.048 786.846 410.391 785.617 413.488C784.437 416.585 782.594 419.092 780.087 421.009C777.629 422.926 774.458 423.885 770.574 423.885C768.559 423.885 766.666 423.541 764.897 422.853C763.176 422.164 761.701 421.206 760.472 419.977C759.292 418.748 758.481 417.298 758.039 415.626L758.924 414.594V434.061H752.73ZM769.985 417.986C773.376 417.986 776.056 416.708 778.022 414.151C779.988 411.595 780.972 408.031 780.972 403.459C780.972 398.888 779.988 395.324 778.022 392.767C776.056 390.211 773.376 388.933 769.985 388.933C767.723 388.933 765.757 389.474 764.085 390.555C762.463 391.637 761.185 393.259 760.251 395.422C759.366 397.585 758.924 400.264 758.924 403.459C758.924 406.655 759.366 409.334 760.251 411.497C761.136 413.66 762.414 415.282 764.085 416.364C765.757 417.445 767.723 417.986 769.985 417.986ZM804.467 423.885C800.436 423.885 797.216 422.951 794.807 421.083C792.448 419.215 791.268 416.609 791.268 413.267C791.268 409.924 792.251 407.294 794.217 405.377C796.184 403.459 799.305 402.107 803.582 401.321L817.445 398.74C817.445 395.446 816.658 392.989 815.085 391.366C813.561 389.744 811.251 388.933 808.154 388.933C805.45 388.933 803.312 389.547 801.739 390.776C800.166 391.956 799.084 393.677 798.494 395.938L791.931 395.422C792.669 391.735 794.439 388.761 797.241 386.5C800.092 384.189 803.73 383.034 808.154 383.034C813.168 383.034 817.002 384.459 819.657 387.311C822.312 390.113 823.639 393.996 823.639 398.961V415.11C823.639 415.995 823.786 416.634 824.081 417.027C824.425 417.371 824.966 417.543 825.704 417.543H827.252V423C827.055 423.049 826.736 423.074 826.294 423.074C825.851 423.123 825.384 423.147 824.892 423.147C823.123 423.147 821.673 422.877 820.542 422.336C819.46 421.746 818.674 420.862 818.182 419.682C817.691 418.453 817.445 416.855 817.445 414.889L818.182 415.036C817.838 416.708 817.002 418.232 815.675 419.608C814.348 420.935 812.701 421.992 810.735 422.779C808.768 423.516 806.679 423.885 804.467 423.885ZM805.057 418.428C807.662 418.428 809.874 417.937 811.693 416.953C813.561 415.921 814.987 414.545 815.97 412.824C816.953 411.054 817.445 409.088 817.445 406.925V404.123L804.762 406.483C802.107 406.974 800.264 407.736 799.232 408.769C798.248 409.752 797.757 411.054 797.757 412.677C797.757 414.496 798.396 415.921 799.674 416.953C801.001 417.937 802.796 418.428 805.057 418.428ZM831.298 423V383.919H836.755L837.05 393.8L836.46 393.578C836.952 390.236 838.009 387.802 839.631 386.278C841.302 384.705 843.514 383.919 846.267 383.919H850.102V389.818H846.341C844.375 389.818 842.728 390.186 841.401 390.924C840.123 391.612 839.139 392.669 838.451 394.095C837.812 395.471 837.493 397.241 837.493 399.404V423H831.298ZM868.6 423.885C864.963 423.885 861.792 423.049 859.088 421.378C856.433 419.706 854.369 417.347 852.894 414.299C851.419 411.202 850.682 407.589 850.682 403.459C850.682 399.33 851.419 395.741 852.894 392.694C854.369 389.646 856.433 387.286 859.088 385.615C861.792 383.894 864.963 383.034 868.6 383.034C871.599 383.034 874.254 383.575 876.564 384.656C878.924 385.688 880.841 387.212 882.316 389.228C883.79 391.243 884.749 393.701 885.191 396.602L878.702 397.044C878.26 394.439 877.129 392.448 875.31 391.071C873.492 389.646 871.255 388.933 868.6 388.933C865.012 388.933 862.21 390.236 860.194 392.841C858.179 395.397 857.171 398.937 857.171 403.459C857.171 407.982 858.179 411.546 860.194 414.151C862.21 416.708 865.012 417.986 868.6 417.986C871.255 417.986 873.492 417.248 875.31 415.774C877.129 414.299 878.26 412.087 878.702 409.137L885.191 409.58C884.749 412.48 883.79 415.012 882.316 417.175C880.841 419.289 878.924 420.935 876.564 422.115C874.254 423.295 871.599 423.885 868.6 423.885ZM905.184 423.885C901.497 423.885 898.302 423.049 895.598 421.378C892.944 419.706 890.879 417.347 889.404 414.299C887.979 411.202 887.266 407.589 887.266 403.459C887.266 399.33 887.979 395.741 889.404 392.694C890.879 389.646 892.919 387.286 895.525 385.615C898.179 383.894 901.301 383.034 904.889 383.034C908.281 383.034 911.28 383.845 913.885 385.467C916.491 387.04 918.506 389.351 919.932 392.399C921.407 395.446 922.144 399.158 922.144 403.533V405.377H893.755C894.001 409.555 895.107 412.701 897.073 414.815C899.089 416.929 901.792 417.986 905.184 417.986C907.741 417.986 909.83 417.396 911.452 416.216C913.123 414.987 914.279 413.389 914.918 411.423L921.554 411.939C920.522 415.43 918.556 418.305 915.655 420.567C912.804 422.779 909.314 423.885 905.184 423.885ZM893.755 399.92H915.36C915.065 396.135 913.959 393.357 912.042 391.587C910.174 389.818 907.79 388.933 904.889 388.933C901.891 388.933 899.408 389.867 897.442 391.735C895.525 393.554 894.296 396.282 893.755 399.92ZM927.585 423V383.919H933.779V423H927.585ZM927.437 377.798V370.572H933.926V377.798H927.437ZM943.358 423V383.919H948.814L949.109 393.8L948.519 393.578C949.011 390.236 950.068 387.802 951.69 386.278C953.362 384.705 955.574 383.919 958.327 383.919H962.161V389.818H958.4C956.434 389.818 954.787 390.186 953.46 390.924C952.182 391.612 951.199 392.669 950.51 394.095C949.871 395.471 949.552 397.241 949.552 399.404V423H943.358ZM975.94 423.885C971.909 423.885 968.689 422.951 966.281 421.083C963.921 419.215 962.741 416.609 962.741 413.267C962.741 409.924 963.724 407.294 965.691 405.377C967.657 403.459 970.779 402.107 975.055 401.321L988.918 398.74C988.918 395.446 988.132 392.989 986.559 391.366C985.035 389.744 982.724 388.933 979.627 388.933C976.923 388.933 974.785 389.547 973.212 390.776C971.639 391.956 970.557 393.677 969.967 395.938L963.405 395.422C964.142 391.735 965.912 388.761 968.714 386.5C971.565 384.189 975.203 383.034 979.627 383.034C984.641 383.034 988.476 384.459 991.13 387.311C993.785 390.113 995.112 393.996 995.112 398.961V415.11C995.112 415.995 995.26 416.634 995.555 417.027C995.899 417.371 996.439 417.543 997.177 417.543H998.725V423C998.529 423.049 998.209 423.074 997.767 423.074C997.324 423.123 996.857 423.147 996.366 423.147C994.596 423.147 993.146 422.877 992.015 422.336C990.934 421.746 990.147 420.862 989.656 419.682C989.164 418.453 988.918 416.855 988.918 414.889L989.656 415.036C989.311 416.708 988.476 418.232 987.148 419.608C985.821 420.935 984.174 421.992 982.208 422.779C980.242 423.516 978.152 423.885 975.94 423.885ZM976.53 418.428C979.136 418.428 981.348 417.937 983.167 416.953C985.035 415.921 986.46 414.545 987.443 412.824C988.427 411.054 988.918 409.088 988.918 406.925V404.123L976.235 406.483C973.581 406.974 971.737 407.736 970.705 408.769C969.722 409.752 969.23 411.054 969.23 412.677C969.23 414.496 969.869 415.921 971.147 416.953C972.475 417.937 974.269 418.428 976.53 418.428ZM1032.41 423.885C1029.02 423.885 1026.07 423.049 1023.56 421.378C1021.1 419.706 1019.21 417.347 1017.88 414.299C1016.55 411.251 1015.89 407.638 1015.89 403.459C1015.89 399.281 1016.55 395.668 1017.88 392.62C1019.21 389.572 1021.1 387.212 1023.56 385.541C1026.07 383.87 1029.02 383.034 1032.41 383.034C1035.01 383.034 1037.4 383.599 1039.56 384.73C1041.72 385.811 1043.35 387.36 1044.43 389.375V370.646H1050.62V423H1045.02L1044.8 417.101C1043.71 419.215 1042.07 420.886 1039.86 422.115C1037.64 423.295 1035.16 423.885 1032.41 423.885ZM1033.66 417.986C1035.97 417.986 1037.91 417.396 1039.49 416.216C1041.11 415.036 1042.34 413.365 1043.17 411.202C1044.01 408.99 1044.43 406.409 1044.43 403.459C1044.43 400.411 1044.01 397.806 1043.17 395.643C1042.34 393.48 1041.11 391.833 1039.49 390.703C1037.91 389.523 1035.97 388.933 1033.66 388.933C1030.22 388.933 1027.47 390.236 1025.4 392.841C1023.39 395.397 1022.38 398.937 1022.38 403.459C1022.38 407.933 1023.39 411.472 1025.4 414.078C1027.47 416.683 1030.22 417.986 1033.66 417.986ZM1073.99 423.885C1070.31 423.885 1067.11 423.049 1064.41 421.378C1061.75 419.706 1059.69 417.347 1058.21 414.299C1056.79 411.202 1056.07 407.589 1056.07 403.459C1056.07 399.33 1056.79 395.741 1058.21 392.694C1059.69 389.646 1061.73 387.286 1064.33 385.615C1066.99 383.894 1070.11 383.034 1073.7 383.034C1077.09 383.034 1080.09 383.845 1082.69 385.467C1085.3 387.04 1087.32 389.351 1088.74 392.399C1090.22 395.446 1090.95 399.158 1090.95 403.533V405.377H1062.56C1062.81 409.555 1063.92 412.701 1065.88 414.815C1067.9 416.929 1070.6 417.986 1073.99 417.986C1076.55 417.986 1078.64 417.396 1080.26 416.216C1081.93 414.987 1083.09 413.389 1083.73 411.423L1090.36 411.939C1089.33 415.43 1087.36 418.305 1084.46 420.567C1081.61 422.779 1078.12 423.885 1073.99 423.885ZM1062.56 399.92H1084.17C1083.87 396.135 1082.77 393.357 1080.85 391.587C1078.98 389.818 1076.6 388.933 1073.7 388.933C1070.7 388.933 1068.22 389.867 1066.25 391.735C1064.33 393.554 1063.1 396.282 1062.56 399.92ZM1127.86 423.885C1124.22 423.885 1121.05 423.049 1118.35 421.378C1115.7 419.706 1113.63 417.347 1112.16 414.299C1110.68 411.202 1109.94 407.589 1109.94 403.459C1109.94 399.33 1110.68 395.741 1112.16 392.694C1113.63 389.646 1115.7 387.286 1118.35 385.615C1121.05 383.894 1124.22 383.034 1127.86 383.034C1130.86 383.034 1133.52 383.575 1135.83 384.656C1138.19 385.688 1140.1 387.212 1141.58 389.228C1143.05 391.243 1144.01 393.701 1144.45 396.602L1137.96 397.044C1137.52 394.439 1136.39 392.448 1134.57 391.071C1132.75 389.646 1130.52 388.933 1127.86 388.933C1124.27 388.933 1121.47 390.236 1119.46 392.841C1117.44 395.397 1116.43 398.937 1116.43 403.459C1116.43 407.982 1117.44 411.546 1119.46 414.151C1121.47 416.708 1124.27 417.986 1127.86 417.986C1130.52 417.986 1132.75 417.248 1134.57 415.774C1136.39 414.299 1137.52 412.087 1137.96 409.137L1144.45 409.58C1144.01 412.48 1143.05 415.012 1141.58 417.175C1140.1 419.289 1138.19 420.935 1135.83 422.115C1133.52 423.295 1130.86 423.885 1127.86 423.885ZM1164.45 423.885C1160.86 423.885 1157.71 423.049 1155.01 421.378C1152.3 419.706 1150.21 417.347 1148.74 414.299C1147.27 411.202 1146.53 407.589 1146.53 403.459C1146.53 399.281 1147.27 395.668 1148.74 392.62C1150.21 389.572 1152.3 387.212 1155.01 385.541C1157.71 383.87 1160.86 383.034 1164.45 383.034C1168.04 383.034 1171.16 383.87 1173.81 385.541C1176.51 387.212 1178.6 389.572 1180.08 392.62C1181.55 395.668 1182.29 399.281 1182.29 403.459C1182.29 407.589 1181.55 411.202 1180.08 414.299C1178.6 417.347 1176.51 419.706 1173.81 421.378C1171.16 423.049 1168.04 423.885 1164.45 423.885ZM1164.45 417.986C1168.04 417.986 1170.81 416.708 1172.78 414.151C1174.79 411.546 1175.8 407.982 1175.8 403.459C1175.8 398.937 1174.79 395.397 1172.78 392.841C1170.81 390.236 1168.04 388.933 1164.45 388.933C1160.86 388.933 1158.06 390.236 1156.04 392.841C1154.02 395.397 1153.02 398.937 1153.02 403.459C1153.02 407.982 1154.02 411.546 1156.04 414.151C1158.06 416.708 1160.86 417.986 1164.45 417.986ZM1187.78 423V383.919H1193.46L1193.68 393.873L1192.94 393.21C1193.44 390.899 1194.3 389.007 1195.53 387.532C1196.75 386.008 1198.23 384.877 1199.95 384.14C1201.72 383.403 1203.61 383.034 1205.63 383.034C1208.63 383.034 1211.08 383.697 1213 385.025C1214.97 386.352 1216.42 388.146 1217.35 390.408C1218.34 392.62 1218.83 395.102 1218.83 397.855V423H1212.63V399.625C1212.63 397.216 1212.34 395.201 1211.75 393.578C1211.21 391.907 1210.32 390.653 1209.09 389.818C1207.86 388.933 1206.27 388.49 1204.3 388.49C1201.3 388.49 1198.82 389.449 1196.85 391.366C1194.94 393.234 1193.98 395.987 1193.98 399.625V423H1187.78ZM1241.05 423.885C1237.56 423.885 1234.58 423.32 1232.12 422.189C1229.72 421.058 1227.82 419.51 1226.45 417.543C1225.12 415.528 1224.36 413.242 1224.16 410.686L1230.65 410.243C1231.04 412.603 1232.05 414.496 1233.67 415.921C1235.3 417.298 1237.75 417.986 1241.05 417.986C1243.7 417.986 1245.82 417.568 1247.39 416.732C1249.01 415.847 1249.82 414.446 1249.82 412.529C1249.82 411.497 1249.58 410.637 1249.08 409.948C1248.59 409.26 1247.63 408.67 1246.21 408.179C1244.78 407.638 1242.67 407.122 1239.87 406.63C1236.13 405.942 1233.18 405.106 1231.02 404.123C1228.9 403.091 1227.38 401.837 1226.45 400.362C1225.56 398.838 1225.12 397.044 1225.12 394.979C1225.12 391.489 1226.4 388.638 1228.95 386.426C1231.51 384.164 1235.15 383.034 1239.87 383.034C1243.06 383.034 1245.74 383.624 1247.9 384.804C1250.12 385.934 1251.84 387.458 1253.07 389.375C1254.34 391.243 1255.18 393.308 1255.57 395.569L1249.08 396.012C1248.79 394.635 1248.25 393.431 1247.46 392.399C1246.68 391.317 1245.64 390.481 1244.36 389.891C1243.09 389.252 1241.56 388.933 1239.79 388.933C1236.99 388.933 1234.93 389.474 1233.6 390.555C1232.27 391.637 1231.61 393.013 1231.61 394.684C1231.61 395.963 1231.9 397.02 1232.49 397.855C1233.13 398.642 1234.14 399.305 1235.52 399.846C1236.89 400.338 1238.74 400.78 1241.05 401.173C1245.03 401.862 1248.13 402.697 1250.34 403.681C1252.55 404.664 1254.1 405.868 1254.98 407.294C1255.87 408.719 1256.31 410.464 1256.31 412.529C1256.31 414.938 1255.62 417.003 1254.25 418.723C1252.92 420.395 1251.1 421.673 1248.79 422.558C1246.53 423.442 1243.95 423.885 1241.05 423.885ZM1274.65 423.885C1270.76 423.885 1267.64 422.582 1265.28 419.977C1262.97 417.322 1261.82 413.684 1261.82 409.063V383.919H1268.01V407.367C1268.01 411.153 1268.67 413.955 1270 415.774C1271.38 417.543 1273.47 418.428 1276.27 418.428C1279.36 418.428 1281.8 417.445 1283.57 415.479C1285.34 413.463 1286.22 410.71 1286.22 407.22V383.919H1292.42V423H1286.52V413.34L1287.48 413.856C1286.69 417.052 1285.19 419.534 1282.98 421.304C1280.77 423.025 1277.99 423.885 1274.65 423.885ZM1308.95 423C1306.69 423 1304.84 422.41 1303.42 421.23C1301.99 420.05 1301.28 418.182 1301.28 415.626V370.646H1307.47V415.11C1307.47 415.897 1307.67 416.511 1308.06 416.953C1308.51 417.347 1309.12 417.543 1309.91 417.543H1313.3V423H1308.95ZM1330.06 423C1326.52 423 1323.89 422.189 1322.17 420.567C1320.5 418.944 1319.66 416.413 1319.66 412.972V374.775H1325.86V412.824C1325.86 414.594 1326.25 415.823 1327.04 416.511C1327.82 417.199 1329.03 417.543 1330.65 417.543H1336.26V423H1330.06ZM1313.91 389.375V383.919H1336.26V389.375H1313.91ZM1351.51 423.885C1347.48 423.885 1344.26 422.951 1341.85 421.083C1339.49 419.215 1338.31 416.609 1338.31 413.267C1338.31 409.924 1339.29 407.294 1341.26 405.377C1343.22 403.459 1346.35 402.107 1350.62 401.321L1364.49 398.74C1364.49 395.446 1363.7 392.989 1362.13 391.366C1360.6 389.744 1358.29 388.933 1355.19 388.933C1352.49 388.933 1350.35 389.547 1348.78 390.776C1347.21 391.956 1346.12 393.677 1345.53 395.938L1338.97 395.422C1339.71 391.735 1341.48 388.761 1344.28 386.5C1347.13 384.189 1350.77 383.034 1355.19 383.034C1360.21 383.034 1364.04 384.459 1366.7 387.311C1369.35 390.113 1370.68 393.996 1370.68 398.961V415.11C1370.68 415.995 1370.83 416.634 1371.12 417.027C1371.47 417.371 1372.01 417.543 1372.74 417.543H1374.29V423C1374.1 423.049 1373.78 423.074 1373.33 423.074C1372.89 423.123 1372.42 423.147 1371.93 423.147C1370.16 423.147 1368.71 422.877 1367.58 422.336C1366.5 421.746 1365.71 420.862 1365.22 419.682C1364.73 418.453 1364.49 416.855 1364.49 414.889L1365.22 415.036C1364.88 416.708 1364.04 418.232 1362.72 419.608C1361.39 420.935 1359.74 421.992 1357.78 422.779C1355.81 423.516 1353.72 423.885 1351.51 423.885ZM1352.1 418.428C1354.7 418.428 1356.91 417.937 1358.73 416.953C1360.6 415.921 1362.03 414.545 1363.01 412.824C1363.99 411.054 1364.49 409.088 1364.49 406.925V404.123L1351.8 406.483C1349.15 406.974 1347.3 407.736 1346.27 408.769C1345.29 409.752 1344.8 411.054 1344.8 412.677C1344.8 414.496 1345.44 415.921 1346.71 416.953C1348.04 417.937 1349.84 418.428 1352.1 418.428ZM630.131 519.885C626.64 519.885 623.666 519.32 621.208 518.189C618.799 517.058 616.907 515.51 615.53 513.543C614.203 511.528 613.441 509.242 613.244 506.686L619.733 506.243C620.127 508.603 621.134 510.496 622.757 511.921C624.379 513.298 626.837 513.986 630.131 513.986C632.785 513.986 634.899 513.568 636.472 512.732C638.094 511.847 638.905 510.446 638.905 508.529C638.905 507.497 638.66 506.637 638.168 505.948C637.676 505.26 636.718 504.67 635.292 504.179C633.867 503.638 631.753 503.122 628.951 502.63C625.215 501.942 622.265 501.106 620.102 500.123C617.988 499.091 616.464 497.837 615.53 496.362C614.646 494.838 614.203 493.044 614.203 490.979C614.203 487.489 615.481 484.638 618.037 482.426C620.594 480.164 624.231 479.034 628.951 479.034C632.146 479.034 634.825 479.624 636.988 480.804C639.2 481.934 640.921 483.458 642.15 485.375C643.428 487.243 644.264 489.308 644.657 491.569L638.168 492.012C637.873 490.635 637.332 489.431 636.546 488.399C635.759 487.317 634.727 486.481 633.449 485.891C632.171 485.252 630.647 484.933 628.877 484.933C626.075 484.933 624.01 485.474 622.683 486.555C621.356 487.637 620.692 489.013 620.692 490.684C620.692 491.963 620.987 493.02 621.577 493.855C622.216 494.642 623.224 495.305 624.6 495.846C625.977 496.338 627.82 496.78 630.131 497.173C634.112 497.862 637.209 498.697 639.422 499.681C641.634 500.664 643.182 501.868 644.067 503.294C644.952 504.719 645.394 506.464 645.394 508.529C645.394 510.938 644.706 513.003 643.33 514.723C642.002 516.395 640.184 517.673 637.873 518.558C635.612 519.442 633.031 519.885 630.131 519.885ZM666.163 519.885C662.574 519.885 659.428 519.049 656.724 517.378C654.02 515.706 651.931 513.347 650.456 510.299C648.982 507.202 648.244 503.589 648.244 499.459C648.244 495.281 648.982 491.668 650.456 488.62C651.931 485.572 654.02 483.212 656.724 481.541C659.428 479.87 662.574 479.034 666.163 479.034C669.751 479.034 672.873 479.87 675.527 481.541C678.231 483.212 680.32 485.572 681.795 488.62C683.27 491.668 684.007 495.281 684.007 499.459C684.007 503.589 683.27 507.202 681.795 510.299C680.32 513.347 678.231 515.706 675.527 517.378C672.873 519.049 669.751 519.885 666.163 519.885ZM666.163 513.986C669.751 513.986 672.529 512.708 674.495 510.151C676.511 507.546 677.518 503.982 677.518 499.459C677.518 494.937 676.511 491.397 674.495 488.841C672.529 486.236 669.751 484.933 666.163 484.933C662.574 484.933 659.772 486.236 657.757 488.841C655.741 491.397 654.733 494.937 654.733 499.459C654.733 503.982 655.741 507.546 657.757 510.151C659.772 512.708 662.574 513.986 666.163 513.986ZM707.418 519.885C704.714 519.885 702.305 519.295 700.191 518.115C698.077 516.886 696.455 515.215 695.324 513.101L695.103 519H689.499V466.646H695.693V485.375C696.676 483.753 698.2 482.303 700.265 481.025C702.33 479.697 704.714 479.034 707.418 479.034C710.859 479.034 713.833 479.87 716.34 481.541C718.847 483.212 720.789 485.572 722.165 488.62C723.542 491.668 724.23 495.281 724.23 499.459C724.23 503.638 723.542 507.251 722.165 510.299C720.789 513.347 718.847 515.706 716.34 517.378C713.833 519.049 710.859 519.885 707.418 519.885ZM707.049 513.986C710.342 513.986 712.948 512.683 714.865 510.078C716.782 507.472 717.741 503.933 717.741 499.459C717.741 494.937 716.782 491.397 714.865 488.841C712.948 486.236 710.392 484.933 707.196 484.933C704.788 484.933 702.723 485.523 701.002 486.703C699.282 487.833 697.954 489.48 697.02 491.643C696.136 493.806 695.693 496.411 695.693 499.459C695.693 502.409 696.136 504.99 697.02 507.202C697.954 509.365 699.257 511.036 700.929 512.216C702.649 513.396 704.689 513.986 707.049 513.986ZM729.684 519V479.919H735.14L735.435 489.8L734.845 489.578C735.337 486.236 736.394 483.802 738.016 482.278C739.687 480.705 741.9 479.919 744.653 479.919H748.487V485.818H744.726C742.76 485.818 741.113 486.186 739.786 486.924C738.508 487.612 737.524 488.669 736.836 490.095C736.197 491.471 735.878 493.241 735.878 495.404V519H729.684ZM766.985 519.885C763.299 519.885 760.103 519.049 757.399 517.378C754.745 515.706 752.68 513.347 751.205 510.299C749.78 507.202 749.067 503.589 749.067 499.459C749.067 495.33 749.78 491.741 751.205 488.694C752.68 485.646 754.72 483.286 757.326 481.615C759.98 479.894 763.102 479.034 766.69 479.034C770.082 479.034 773.081 479.845 775.687 481.467C778.292 483.04 780.307 485.351 781.733 488.399C783.208 491.446 783.945 495.158 783.945 499.533V501.377H755.556C755.802 505.555 756.908 508.701 758.874 510.815C760.89 512.929 763.593 513.986 766.985 513.986C769.542 513.986 771.631 513.396 773.253 512.216C774.925 510.987 776.08 509.389 776.719 507.423L783.355 507.939C782.323 511.43 780.357 514.305 777.456 516.567C774.605 518.779 771.115 519.885 766.985 519.885ZM755.556 495.92H777.161C776.866 492.135 775.76 489.357 773.843 487.587C771.975 485.818 769.591 484.933 766.69 484.933C763.692 484.933 761.209 485.867 759.243 487.735C757.326 489.554 756.097 492.282 755.556 495.92ZM823.509 519.885C820.806 519.885 818.397 519.295 816.283 518.115C814.169 516.886 812.547 515.215 811.416 513.101L811.195 519H805.591V466.646H811.785V485.375C812.768 483.753 814.292 482.303 816.357 481.025C818.421 479.697 820.806 479.034 823.509 479.034C826.95 479.034 829.925 479.87 832.432 481.541C834.939 483.212 836.881 485.572 838.257 488.62C839.633 491.668 840.322 495.281 840.322 499.459C840.322 503.638 839.633 507.251 838.257 510.299C836.881 513.347 834.939 515.706 832.432 517.378C829.925 519.049 826.95 519.885 823.509 519.885ZM823.141 513.986C826.434 513.986 829.04 512.683 830.957 510.078C832.874 507.472 833.833 503.933 833.833 499.459C833.833 494.937 832.874 491.397 830.957 488.841C829.04 486.236 826.483 484.933 823.288 484.933C820.879 484.933 818.815 485.523 817.094 486.703C815.374 487.833 814.046 489.48 813.112 491.643C812.227 493.806 811.785 496.411 811.785 499.459C811.785 502.409 812.227 504.99 813.112 507.202C814.046 509.365 815.349 511.036 817.02 512.216C818.741 513.396 820.781 513.986 823.141 513.986ZM845.775 519V479.919H851.969V519H845.775ZM845.628 473.798V466.572H852.117V473.798H845.628ZM875.372 519.885C871.784 519.885 868.637 519.049 865.934 517.378C863.23 515.706 861.141 513.347 859.666 510.299C858.191 507.202 857.454 503.589 857.454 499.459C857.454 495.281 858.191 491.668 859.666 488.62C861.141 485.572 863.23 483.212 865.934 481.541C868.637 479.87 871.784 479.034 875.372 479.034C878.961 479.034 882.082 479.87 884.737 481.541C887.441 483.212 889.53 485.572 891.005 488.62C892.479 491.668 893.217 495.281 893.217 499.459C893.217 503.589 892.479 507.202 891.005 510.299C889.53 513.347 887.441 515.706 884.737 517.378C882.082 519.049 878.961 519.885 875.372 519.885ZM875.372 513.986C878.961 513.986 881.738 512.708 883.705 510.151C885.72 507.546 886.728 503.982 886.728 499.459C886.728 494.937 885.72 491.397 883.705 488.841C881.738 486.236 878.961 484.933 875.372 484.933C871.784 484.933 868.981 486.236 866.966 488.841C864.95 491.397 863.943 494.937 863.943 499.459C863.943 503.982 864.95 507.546 866.966 510.151C868.981 512.708 871.784 513.986 875.372 513.986ZM906.737 519C904.476 519 902.633 518.41 901.207 517.23C899.781 516.05 899.069 514.182 899.069 511.626V466.646H905.263V511.11C905.263 511.897 905.459 512.511 905.853 512.953C906.295 513.347 906.909 513.543 907.696 513.543H911.088V519H906.737ZM930.61 519.885C927.021 519.885 923.875 519.049 921.171 517.378C918.467 515.706 916.378 513.347 914.903 510.299C913.429 507.202 912.691 503.589 912.691 499.459C912.691 495.281 913.429 491.668 914.903 488.62C916.378 485.572 918.467 483.212 921.171 481.541C923.875 479.87 927.021 479.034 930.61 479.034C934.198 479.034 937.32 479.87 939.974 481.541C942.678 483.212 944.767 485.572 946.242 488.62C947.717 491.668 948.454 495.281 948.454 499.459C948.454 503.589 947.717 507.202 946.242 510.299C944.767 513.347 942.678 515.706 939.974 517.378C937.32 519.049 934.198 519.885 930.61 519.885ZM930.61 513.986C934.198 513.986 936.976 512.708 938.942 510.151C940.958 507.546 941.965 503.982 941.965 499.459C941.965 494.937 940.958 491.397 938.942 488.841C936.976 486.236 934.198 484.933 930.61 484.933C927.021 484.933 924.219 486.236 922.203 488.841C920.188 491.397 919.18 494.937 919.18 499.459C919.18 503.982 920.188 507.546 922.203 510.151C924.219 512.708 927.021 513.986 930.61 513.986ZM968.767 530.946C965.965 530.946 963.434 530.479 961.172 529.545C958.911 528.611 957.018 527.283 955.495 525.563C953.971 523.842 952.938 521.851 952.398 519.59L958.887 519.147C959.476 520.966 960.509 522.392 961.984 523.424C963.507 524.506 965.769 525.047 968.767 525.047C972.307 525.047 975.011 524.334 976.879 522.908C978.796 521.483 979.754 519.344 979.754 516.493V510.151C978.82 512.216 977.321 513.863 975.256 515.092C973.192 516.321 970.881 516.935 968.325 516.935C965.031 516.935 962.082 516.124 959.476 514.502C956.92 512.88 954.905 510.643 953.43 507.792C952.004 504.941 951.291 501.671 951.291 497.985C951.291 494.249 952.004 490.979 953.43 488.177C954.856 485.326 956.822 483.089 959.329 481.467C961.885 479.845 964.786 479.034 968.03 479.034C970.783 479.034 973.241 479.673 975.404 480.951C977.616 482.229 979.165 483.95 980.049 486.113V479.919H985.948V516.345C985.948 519.393 985.26 521.999 983.884 524.162C982.507 526.374 980.541 528.045 977.985 529.176C975.428 530.356 972.356 530.946 968.767 530.946ZM968.62 511.036C971.963 511.036 974.642 509.881 976.657 507.571C978.673 505.211 979.705 502.016 979.754 497.985C979.804 495.281 979.361 492.97 978.427 491.053C977.542 489.087 976.24 487.587 974.519 486.555C972.848 485.474 970.881 484.933 968.62 484.933C965.179 484.933 962.5 486.113 960.583 488.472C958.714 490.783 957.78 493.954 957.78 497.985C957.78 502.016 958.739 505.211 960.656 507.571C962.623 509.881 965.277 511.036 968.62 511.036ZM993.699 519V479.919H999.893V519H993.699ZM993.551 473.798V466.572H1000.04V473.798H993.551ZM1018.58 519.885C1014.54 519.885 1011.33 518.951 1008.92 517.083C1006.56 515.215 1005.38 512.609 1005.38 509.267C1005.38 505.924 1006.36 503.294 1008.33 501.377C1010.29 499.459 1013.41 498.107 1017.69 497.321L1031.55 494.74C1031.55 491.446 1030.77 488.989 1029.19 487.366C1027.67 485.744 1025.36 484.933 1022.26 484.933C1019.56 484.933 1017.42 485.547 1015.85 486.776C1014.27 487.956 1013.19 489.677 1012.6 491.938L1006.04 491.422C1006.78 487.735 1008.55 484.761 1011.35 482.5C1014.2 480.189 1017.84 479.034 1022.26 479.034C1027.28 479.034 1031.11 480.459 1033.77 483.311C1036.42 486.113 1037.75 489.996 1037.75 494.961V511.11C1037.75 511.995 1037.9 512.634 1038.19 513.027C1038.53 513.371 1039.08 513.543 1039.81 513.543H1041.36V519C1041.16 519.049 1040.84 519.074 1040.4 519.074C1039.96 519.123 1039.49 519.147 1039 519.147C1037.23 519.147 1035.78 518.877 1034.65 518.336C1033.57 517.746 1032.78 516.862 1032.29 515.682C1031.8 514.453 1031.55 512.855 1031.55 510.889L1032.29 511.036C1031.95 512.708 1031.11 514.232 1029.78 515.608C1028.46 516.935 1026.81 517.992 1024.84 518.779C1022.88 519.516 1020.79 519.885 1018.58 519.885ZM1019.17 514.428C1021.77 514.428 1023.98 513.937 1025.8 512.953C1027.67 511.921 1029.1 510.545 1030.08 508.824C1031.06 507.054 1031.55 505.088 1031.55 502.925V500.123L1018.87 502.483C1016.22 502.974 1014.37 503.736 1013.34 504.769C1012.36 505.752 1011.87 507.054 1011.87 508.677C1011.87 510.496 1012.5 511.921 1013.78 512.953C1015.11 513.937 1016.9 514.428 1019.17 514.428ZM1044.48 519V510.668H1052.81V519H1044.48Z" fill="#173E5E"/>
</svg>
