<svg width="467" height="467" viewBox="0 0 467 467" fill="none" xmlns="http://www.w3.org/2000/svg">
<path d="M417 0C444.614 2.9636e-06 467 22.3858 467 50V60.4414C466.691 60.4629 466.391 60.4931 466.104 60.5352C460.959 61.2537 422.809 82.9008 423.766 84.5752C424.124 85.173 423.885 85.2928 423.048 84.8145C422.33 84.3361 419.938 85.0536 417.666 86.3691C415.513 87.8041 413.361 88.8807 413.002 88.8809C412.643 88.8809 412.165 75.4855 411.926 59.1006L411.566 29.3203L407.859 24.6553C401.042 16.1638 390.995 13.653 382.025 18.3174C379.633 19.6331 376.404 22.3835 374.85 24.5361C372.219 28.3632 372.099 29.2009 371.74 58.6221C371.501 75.2462 371.022 88.8809 370.544 88.8809C370.063 88.8793 361.333 83.9761 351.169 77.9971C323.542 61.8515 318.758 59.6986 312.3 60.6553C301.416 62.3296 294.48 70.3423 294.479 81.2256C294.479 91.0327 297.948 94.8606 316.725 105.744C363.606 132.772 371.261 137.198 375.687 140.308C380.231 143.417 391.115 154.421 406.663 171.404C410.49 175.71 418.742 184.56 424.842 191.138C430.941 197.715 437.04 204.412 438.356 205.968C439.792 207.523 446.37 214.818 453.188 221.994C459.885 229.29 466.104 236.107 466.941 237.423C466.96 237.45 466.981 237.475 467 237.501V279.472C465.161 277.54 463.413 275.707 461.799 274.02C451.394 263.017 442.305 254.287 441.706 254.765C440.988 255.123 440.869 254.884 441.228 254.286C442.304 252.612 399.128 207.045 397.573 208.121C396.856 208.48 396.617 208.36 396.976 207.762C397.812 206.206 388.842 196.281 387.646 197.477C387.049 197.955 387.049 197.715 387.408 196.998C388.244 195.562 370.305 177.384 368.152 177.384C367.554 177.384 366.597 176.068 366.238 174.394C365.76 172.719 365.042 171.643 364.444 172.002C363.846 172.241 363.129 171.762 362.771 170.806C361.814 168.653 351.767 163.51 345.069 161.955C342.198 161.237 321.867 159.563 299.861 158.128C269.483 156.334 258.958 155.257 256.207 153.822C254.173 152.745 247.955 147.723 242.334 142.461C224.035 125.478 201.789 117.226 185.404 121.053C180.86 122.249 177.75 124.282 173.923 128.946C169.737 133.969 167.944 137.677 168.9 139.352C169.378 140.188 169.259 140.308 168.422 139.83C166.747 138.754 161.485 155.258 160.289 165.065L159.571 172.36L154.309 173.198C144.741 174.634 130.508 182.766 121.18 192.214C106.349 207.044 102.044 218.885 105.393 235.39C108.143 248.306 116.396 264.571 119.386 262.777C120.103 262.299 120.343 262.539 119.984 263.137C119.028 264.572 125.486 270.671 133.618 276.412C138.641 279.761 159.931 291.003 161.485 291.003C161.864 291.011 186.254 301.054 215.663 313.248C245.204 325.447 276.778 338.603 285.987 342.431C295.196 346.258 306.319 350.205 310.625 351.281C324.977 354.75 349.974 353.433 363.728 348.171C368.632 346.377 384.538 338.364 395.421 332.265C400.324 329.514 408.697 324.849 413.959 322.099C439.075 308.584 438.357 308.823 444.457 311.933C449.241 314.444 451.633 318.272 451.633 323.653C451.633 330.59 448.403 333.939 434.53 341.234C427.594 344.822 422.212 348.291 422.57 349.009C423.048 349.606 422.929 349.845 422.331 349.367C421.016 348.052 402.479 358.097 403.434 359.533C403.792 360.251 403.554 360.37 402.717 359.892C401.999 359.413 392.79 363.719 381.906 369.699C371.262 375.56 358.824 382.377 354.159 384.889C324.02 401.034 324.02 401.034 320.312 409.167C313.376 424.236 321.269 440.86 337.415 445.166C340.405 445.884 359.302 446.481 386.93 446.481L431.54 446.602L434.769 450.309C437.922 454.092 438.84 458.604 437.593 462.575C431.313 465.417 424.341 467 417 467H319.32C317.555 464.445 308.527 449.239 299.383 433.206C290.054 417.06 281.562 402.828 280.605 401.632C278.094 398.642 269.961 395.055 265.536 395.055C260.513 395.055 252.74 398.283 253.815 400.077C254.294 400.795 254.174 401.034 253.457 400.676C251.663 399.599 246.639 405.34 247.716 407.134C248.314 407.971 248.195 408.329 247.357 407.731C245.683 406.775 244.128 416.462 245.324 420.409C246.879 425.552 259.556 446.362 260.633 445.645C261.35 445.286 261.47 445.526 260.991 446.243C259.916 448.038 265.536 457.604 266.852 456.408C267.33 455.811 267.45 456.169 266.972 456.887C266.134 458.322 271.277 467.292 272.354 466.335C272.491 466.198 272.668 466.458 272.794 467H154.626C176.997 428.309 182.534 418.291 182.534 417.061C182.534 415.984 183.013 415.506 183.73 415.984C185.285 416.94 187.079 409.645 186.481 404.024C186.242 401.393 184.926 397.566 183.73 395.652C179.544 388.835 155.744 347.932 150.003 337.646C141.632 322.699 137.088 316.001 135.771 316.836C135.174 317.195 135.053 316.597 135.412 315.641C135.891 314.205 134.695 313.009 130.987 311.335C124.41 308.345 118.788 308.345 112.33 311.215C106.111 314.085 101.207 321.86 101.207 329.155C101.207 334.657 107.666 349.008 109.579 347.812C110.177 347.454 110.535 347.813 110.177 348.649C109.818 349.487 114.124 357.979 119.745 367.547L129.911 384.889L100.25 385.486C71.0683 386.084 70.4699 386.084 66.0449 389.074C53.9654 397.207 53.965 416.343 66.1641 423.878C70.5892 426.629 71.9051 426.748 100.25 427.346L129.791 427.944L123.931 437.99C120.701 443.492 118.429 448.635 118.788 449.353C119.147 450.07 119.147 450.309 118.549 449.831C118.07 449.233 114.124 454.974 109.818 462.389C108.837 464.092 107.973 465.618 107.207 467H50C22.3858 467 0 444.614 0 417V50C2.96398e-06 22.3858 22.3858 0 50 0H417ZM467 417C467 418.604 466.923 420.19 466.775 421.755C461.019 415.93 456.57 411.799 455.699 411.798C454.862 411.798 454.384 411.081 454.742 410.124C455.101 409.167 454.862 408.091 454.145 407.612C453.427 407.254 452.828 404.861 452.828 402.35C452.828 397.207 455.34 394.456 463.354 390.39C465.018 389.558 466.268 388.723 467 388.001V417ZM231.57 201.423C238.986 198.792 254.054 198.194 262.546 200.228C277.974 203.696 295.077 217.689 299.144 230.127C305.482 249.024 297.948 266.844 280.008 274.977C253.935 286.936 220.209 274.977 208.607 249.622C204.421 240.533 204.78 227.974 209.444 219.243C213.75 211.469 222.122 204.772 231.57 201.423ZM467 170.146C429.589 153.718 416.142 147.211 414.677 144.733C412.285 140.667 414.557 135.643 420.298 132.414C422.69 131.099 424.603 129.424 424.483 128.587C424.245 127.87 424.842 127.511 425.799 127.87C426.636 128.229 432.736 125.358 439.194 121.65C445.772 117.823 454.981 112.561 459.646 109.811C463.045 107.856 465.838 105.959 467 104.854V170.146Z" fill="#3B9E7C"/>
</svg>
